<svg xmlns="http://www.w3.org/2000/svg" viewBox="0 0 218 60"><defs><style>.cls-1{fill:#76f;}.cls-2{fill:#fff;}</style></defs><title>viiision-logo-top</title><g id="图层_2" data-name="图层 2"><g id="spots-LOGO"><rect class="cls-1" width="218" height="60"/><path class="cls-2" d="M40,17h0a5,5,0,0,1,5.25-4.79H71.75A5,5,0,0,1,77,17h0a5,5,0,0,1-5.25,4.79H70.43a5,5,0,0,0-5.25,4.79V44.12c0,2.65.55,4.79-2.35,4.79H54.14c-2.9,0-2.32-2.14-2.32-4.79V26.56a5,5,0,0,0-5.25-4.79H45.25A5,5,0,0,1,40,17Z"/><path class="cls-2" d="M40.23,25.93h0A6.75,6.75,0,0,1,47,32.69V48.91a0,0,0,0,1,0,0H40.23a0,0,0,0,1,0,0v-23A0,0,0,0,1,40.23,25.93Z"/><path class="cls-2" d="M76.91,26.93h0a0,0,0,0,1,0,0v22a0,0,0,0,1,0,0H70.16a0,0,0,0,1,0,0V33.68A6.75,6.75,0,0,1,76.91,26.93Z"/><path class="cls-2" d="M106.15,24.92V29L110,35.87,113.88,29v-4.1h5.71v5l-6.74,11.5h-5.71l-6.74-11.5v-5Z"/><path class="cls-2" d="M129.21,28.81V41.34h-5.78V28.81Zm0-1.54h-5.74V23.7h5.74Z"/><path class="cls-2" d="M138.83,28.81V41.34h-5.78V28.81Zm0-1.54h-5.74V23.7h5.74Z"/><path class="cls-2" d="M148.46,28.81V41.34h-5.78V28.81Zm0-1.54H142.7V23.7h5.74Z"/><path class="cls-2" d="M157.7,33.69H165v7.66H153.59l-1.3-2.54h7.78V36.37h-7.2V28.81H165v2.54H157.7Z"/><rect class="cls-2" x="184.59" y="38" width="5.57" height="2"/><rect class="cls-2" x="184.59" y="35" width="5.57" height="2"/><rect class="cls-2" x="184.59" y="32.04" width="5.57" height="1.96"/><rect class="cls-2" x="214.88" y="32" width="3.12" height="2"/><rect class="cls-2" x="166" y="8" width="52" height="2"/><rect class="cls-2" x="214.88" y="38" width="3.12" height="2"/><rect class="cls-2" x="166" y="14" width="52" height="2"/><rect class="cls-2" x="166" y="17" width="52" height="2"/><rect class="cls-2" x="166" y="20" width="52" height="2"/><rect class="cls-2" x="166" y="5" width="52" height="2"/><rect class="cls-2" x="166" width="52" height="1"/><rect class="cls-2" x="166" y="2" width="52" height="2"/><rect class="cls-2" x="166" y="11" width="52" height="2"/><rect class="cls-2" x="195.13" y="35" width="3.84" height="2"/><rect class="cls-2" x="166" y="32" width="3.81" height="2"/><rect class="cls-2" x="166" y="35" width="3.81" height="2"/><rect class="cls-2" x="214.88" y="35" width="3.12" height="2"/><rect class="cls-2" x="166" y="26" width="3.83" height="2"/><rect class="cls-2" x="175.57" y="26" width="42.43" height="2"/><rect class="cls-2" x="166" y="38" width="3.81" height="2"/><polygon class="cls-2" points="175.57 24.7 175.57 25 218 25 218 23 166 23 166 25 169.83 25 169.83 24.7 175.57 24.7"/><rect class="cls-2" x="195.13" y="38" width="3.84" height="2"/><polygon class="cls-2" points="175.59 29.81 175.59 31 179.43 31 179.43 29.79 195.13 29.79 195.13 31 198.97 31 198.97 29.77 204.83 29.77 204.83 31 205.78 31 206.36 29.77 214.88 29.77 214.88 31 218 31 218 29 166 29 166 31 169.81 31 169.81 29.81 175.59 29.81"/><rect class="cls-2" x="166" y="44" width="52" height="2"/><polygon class="cls-2" points="218 41 214.88 41 214.88 42.34 209.15 42.34 209.15 41 204.83 41 204.83 42.34 198.97 42.34 198.97 41 195.13 41 195.13 42.34 190.16 42.34 190.16 41 189.66 41 188.94 42.34 179.43 42.34 179.43 41 175.59 41 175.59 42.34 169.81 42.34 169.81 41 166 41 166 43 218 43 218 41"/><rect class="cls-2" x="175.59" y="35" width="3.84" height="2"/><rect class="cls-2" x="175.59" y="38" width="3.84" height="2"/><rect class="cls-2" x="166" y="53" width="52" height="2"/><rect class="cls-2" x="166" y="47" width="52" height="2"/><rect class="cls-2" x="166" y="50" width="52" height="2"/><rect class="cls-2" x="166" y="59" width="52" height="1"/><rect class="cls-2" x="175.59" y="32" width="3.84" height="2"/><rect class="cls-2" x="166" y="56" width="52" height="2"/><rect class="cls-2" x="204.83" y="38" width="4.32" height="2"/><rect class="cls-2" x="204.83" y="33.05" width="4.32" height="0.95"/><polygon class="cls-2" points="204.83 33.05 205.32 32 204.83 32 204.83 33.05"/><rect class="cls-2" x="204.83" y="35" width="4.32" height="2"/><rect class="cls-2" x="195.13" y="32" width="3.84" height="2"/></g></g></svg>